<svg xmlns="http://www.w3.org/2000/svg" version="1.1" viewBox="-5.0 -10.0 110.0 135.0">
 <g>
  <path d="m14.219 71.039c0.058594-5.4883 0.14062-10.98 0.26953-16.48 0.26172-10.98 0.67969-21.961 1.3594-32.93 0.32031-5.1211 0.69922-12.539-4.3008-12.379-4.1016 0.14062-3.6406 7.1484-3.6602 11.879-0.039063 10.75 0.078125 21.488 0.21094 32.238l0.19141 16.121 0.039063 4.0312v2.0117c0.011719 0.28906 0.03125 0.76172 0.058594 1.2109 0.011719 0.44141 0.058593 0.87891 0.14062 1.3203 0.51953 3.5195 2.3594 6.8281 5.0781 9.0898 1.4102 1.1992 3.0586 2.1211 4.8203 2.7109 0.87891 0.28906 1.7891 0.51172 2.7109 0.62109 0.46094 0.078125 0.92188 0.089844 1.3789 0.12109l0.67188 0.03125h0.53125 8.4297 16.852l33.699-0.019531c3.6992 0 9.1914 0.98047 9.4219-2.6992 0.25-3.9688-5.4883-2.8594-9-2.9102-10.98-0.14062-21.969-0.16016-32.961-0.14844l-16.48 0.03125h-8.2383l-2.0586 0.011719c-0.66016-0.019532-1.1406-0.019532-1.7109-0.12891-1.0898-0.17969-2.1406-0.55859-3.1016-1.1211-1.9102-1.1211-3.3711-2.9805-4.0117-5.0781l-0.19922-0.80078-0.12109-0.82031c-0.039062-0.55078-0.058593-1.0586-0.050781-1.8008l0.039062-4.1211z"/>
  <path d="m77.109 70.73c4.1016-0.03125 3.6406-1.6094 3.6602-2.6797 0.078125-4.8398-0.48828-9.6797-0.48828-14.531 0.039062 0 0.089844 0 0 0 0-5.0586 0.019531-10.121-0.019531-15.191 0-0.82812 0.98047-2.0703-2.6992-2.1211-3.9805-0.058593-2.8594 1.2383-2.9102 2.0312-0.57812 9.8984 0.89062 19.809-1.8398 29.699-0.32031 1.1484-0.69922 2.8281 4.3008 2.7891z"/>
  <path d="m54.551 70.73c4.1016-0.050781 3.6406-2.3594 3.6602-3.9102 0.078124-7.0781-0.48828-14.148-0.48828-21.23-0.089844 0-0.039062 0 0 0 0-7.3984 0.019532-14.801-0.019531-22.199 0-1.2188 0.98047-3.0195-2.6992-3.1016-3.9805-0.078124-2.8594 1.8086-2.9102 2.9609-0.57812 14.469 0.89062 28.949-1.8398 43.398-0.32031 1.6914-0.69922 4.1289 4.3008 4.0781z"/>
  <path d="m31.98 70.73c4.1016-0.03125 3.6406-1.3008 3.6602-2.1602 0.078125-3.9102-0.48828-7.8203-0.48828-11.73s0.019531-8.1797-0.019532-12.27c0-0.67187 0.98047-1.6719-2.6992-1.7109-3.9805-0.050781-2.8594 1-2.9102 1.6406-0.57813 7.9883 0.89062 16-1.8398 23.988-0.32031 0.92969-0.69922 2.2812 4.3008 2.25z"/>
 </g>
<text x="0.0" y="117.5" font-size="5.0" font-weight="bold" font-family="Arbeit Regular, Helvetica, Arial-Unicode, Arial, Sans-serif" fill="#000000">Created by Gregor Cresnar</text><text x="0.0" y="122.5" font-size="5.0" font-weight="bold" font-family="Arbeit Regular, Helvetica, Arial-Unicode, Arial, Sans-serif" fill="#000000">from Noun Project</text></svg>